<svg xmlns="http://www.w3.org/2000/svg" viewBox="0 0 36 36" width="36" height="36" role="img" aria-label="Apple Podcasts">
  <defs>
    <linearGradient id="ap-g" x1="0" y1="0" x2="0" y2="1">
      <stop offset="0" stop-color="#F452FF"/>
      <stop offset="1" stop-color="#832BC1"/>
    </linearGradient>
  </defs>
  <rect width="36" height="36" rx="8" fill="url(#ap-g)"/>
  <path fill="#fff" d="M18 5.5a12.5 12.5 0 1 0 0 25 12.5 12.5 0 0 0 0-25zm0 2a10.5 10.5 0 1 1 0 21 10.5 10.5 0 0 1 0-21zm0 2.5a8 8 0 1 0 0 16A8 8 0 0 0 18 10zm0 1.5a6.5 6.5 0 0 1 3.05 12.27c.03-.37.04-.74.02-1.12a4.98 4.98 0 0 0-6.15 0c-.02.38-.01.75.02 1.12A6.5 6.5 0 0 1 18 11.5zm0 1.75a2.75 2.75 0 1 0 0 5.5 2.75 2.75 0 0 0 0-5.5zm-1.5 9.5c.48-.12.98-.19 1.5-.19s1.02.07 1.5.19c-.03.52-.12 1.03-.25 1.5h-2.5a8.7 8.7 0 0 1-.25-1.5z"/>
</svg>
