<svg xmlns="http://www.w3.org/2000/svg" viewBox="0 0 36 36" width="36" height="36" role="img" aria-label="Spotify">
  <circle cx="18" cy="18" r="18" fill="#1DB954"/>
  <path fill="#fff" d="M25.95 16.17c-4.11-2.44-10.9-2.67-14.84-1.47a1.08 1.08 0 0 1-.63-2.07c4.52-1.37 12.04-1.11 16.8 1.7a1.08 1.08 0 0 1-1.33 1.84zm-.15 3.52a.9.9 0 0 1-1.24.3c-3.42-2.1-8.63-2.71-12.68-1.48a.9.9 0 0 1-.52-1.72c4.62-1.4 10.37-.72 14.14 1.67a.9.9 0 0 1 .3 1.23zm-1.41 3.38a.72.72 0 0 1-.99.24c-2.99-1.83-6.76-2.24-11.2-1.23a.72.72 0 1 1-.32-1.4c4.86-1.1 9.03-.63 12.27 1.4a.72.72 0 0 1 .24.99z"/>
</svg>
