<svg width="538" height="787" viewBox="0 0 538 787" fill="none" xmlns="http://www.w3.org/2000/svg">
<g id="Group 15">
<g id="Group 11">
<path id="[" d="M537.684 397.146H468.32V418.907H512.522V692.623H468.32V714.385H537.684V397.146Z" fill="#1D1D1B"/>
<path id="[_2" d="M0 397.372H69.3641V419.134H25.1615V692.85H69.3641V714.611H0V397.372Z" fill="#1D1D1B"/>
</g>
<g id="Vector">
<path d="M153.463 769.383L151.139 767.088L134.875 783.154L137.199 785.449L153.463 769.383Z" fill="#FF6100"/>
<path d="M153.462 783.153L137.198 767.088L134.875 769.383L151.139 785.448L153.462 783.153Z" fill="#FF6100"/>
</g>
<g id="Group 9">
<path id="Vector_2" d="M390.989 777.825C391.576 778.689 391.89 779.71 391.89 780.755C391.89 781.629 391.666 782.489 391.241 783.253C390.781 784.079 390.144 784.794 389.375 785.345C388.626 785.889 387.791 786.304 386.905 786.571C385.024 787.143 383.015 787.143 381.135 786.571C380.248 786.304 379.413 785.889 378.664 785.345C377.706 784.677 376.973 783.734 376.564 782.64L379.746 780.836C379.771 781.165 379.893 781.479 380.098 781.738C380.294 781.997 380.532 782.223 380.801 782.405C381.253 782.717 381.752 782.955 382.28 783.109C383.412 783.449 384.619 783.449 385.751 783.109C386.278 782.955 386.777 782.717 387.229 782.405C387.526 782.227 387.776 781.982 387.959 781.689C388.142 781.396 388.254 781.064 388.284 780.719C388.277 780.31 388.13 779.916 387.869 779.601C387.564 779.226 387.183 778.919 386.751 778.699C385.795 778.32 384.785 778.095 383.758 778.032C382.402 777.943 381.069 777.639 379.809 777.13C378.716 776.658 377.778 775.886 377.105 774.903C376.481 773.993 376.148 772.914 376.149 771.811C376.148 770.933 376.372 770.071 376.798 769.304C377.244 768.487 377.859 767.774 378.601 767.212C379.35 766.668 380.185 766.253 381.071 765.986C382.952 765.414 384.961 765.414 386.842 765.986C387.728 766.253 388.563 766.668 389.312 767.212C390.275 767.884 391.018 768.825 391.449 769.917L388.23 771.766C388.193 771.427 388.078 771.101 387.896 770.813C387.713 770.526 387.466 770.284 387.175 770.106C386.723 769.795 386.224 769.558 385.697 769.403C384.564 769.065 383.358 769.065 382.226 769.403C381.698 769.557 381.199 769.795 380.747 770.106C380.451 770.284 380.201 770.53 380.017 770.823C379.834 771.116 379.722 771.448 379.692 771.793C379.704 772.227 379.859 772.646 380.134 772.983C380.457 773.393 380.888 773.705 381.378 773.884C381.766 774.048 382.171 774.166 382.586 774.236C383.055 774.32 383.596 774.404 384.209 774.489C385.676 774.617 387.111 774.989 388.455 775.589C389.468 776.119 390.337 776.886 390.989 777.825Z" fill="#1D1D1B"/>
<path id="Vector_3" d="M405.469 786.778V765.814H418.722V769.421H409.075V774.489H416.342V778.095H409.075V783.226H418.731V786.833L405.469 786.778Z" fill="#1D1D1B"/>
<path id="Vector_4" d="M440.52 774.516L434.849 786.787H430.9L440.619 765.814L449.86 786.787H445.938L440.52 774.516Z" fill="#1D1D1B"/>
<path id="Vector_5" d="M474.438 786.779L467.396 777.536V786.779H463.79V765.806H471.471C472.455 765.8 473.431 765.968 474.356 766.301C475.231 766.615 476.037 767.096 476.728 767.717C477.386 768.285 477.917 768.986 478.287 769.773C478.739 770.741 478.912 771.815 478.788 772.875C478.664 773.936 478.247 774.941 477.584 775.778C476.883 776.675 475.947 777.358 474.879 777.753C474.448 777.914 474.005 778.041 473.554 778.131C473.193 778.22 472.825 778.275 472.454 778.294L478.828 786.77L474.438 786.779ZM467.396 769.412V775.057H470.498C471.52 775.097 472.54 774.921 473.491 774.543C473.964 774.351 474.38 774.04 474.699 773.641C475.028 773.25 475.21 772.755 475.213 772.244C475.208 771.888 475.124 771.538 474.969 771.219C474.813 770.899 474.588 770.618 474.311 770.395C473.512 769.723 472.487 769.381 471.444 769.439L467.396 769.412Z" fill="#1D1D1B"/>
<path id="Vector_6" d="M501.476 786.977C499.609 786.987 497.776 786.485 496.175 785.525C494.571 784.582 493.241 783.236 492.316 781.621C490.904 779.171 490.517 776.261 491.24 773.527C491.963 770.793 493.736 768.455 496.175 767.023C497.779 766.073 499.612 765.578 501.476 765.589C502.951 765.585 504.41 765.892 505.759 766.491C507.117 767.088 508.33 767.974 509.311 769.088L506.669 771.477C506.007 770.745 505.199 770.158 504.298 769.755C503.294 769.308 502.198 769.106 501.1 769.167C500.002 769.228 498.935 769.55 497.987 770.106C496.386 771.076 495.225 772.631 494.749 774.441C494.273 776.252 494.519 778.176 495.435 779.808C496.046 780.889 496.929 781.79 497.996 782.423C498.973 783.011 500.082 783.343 501.221 783.391C502.36 783.438 503.492 783.198 504.514 782.694C505.456 782.227 506.287 781.563 506.949 780.746L509.753 782.973C508.766 784.216 507.512 785.219 506.084 785.909C504.655 786.599 503.089 786.958 501.503 786.959L501.476 786.977Z" fill="#1D1D1B"/>
<path id="Vector_7" d="M534.078 778.077H525.314V786.778H521.708V765.814H525.314V774.48H534.078V765.814H537.684V786.787H534.078V778.077Z" fill="#1D1D1B"/>
<path id="Vector_8" d="M191.782 786.679V765.67H195.388V786.679H191.782Z" fill="#1D1D1B"/>
<path id="Vector_9" d="M228.836 786.679V776.58L221.624 786.589L214.411 776.553V786.679H210.805V765.391L221.624 780.431L232.361 765.391V786.679H228.836Z" fill="#1D1D1B"/>
<path id="Vector_10" d="M247.543 786.679V765.67H255.351C256.272 765.665 257.187 765.821 258.056 766.13C258.898 766.43 259.68 766.879 260.364 767.456C261.043 768.045 261.595 768.766 261.986 769.575C262.365 770.358 262.561 771.216 262.561 772.086C262.561 772.955 262.365 773.814 261.986 774.597C261.587 775.407 261.036 776.132 260.364 776.734C259.68 777.311 258.898 777.76 258.056 778.059C257.187 778.369 256.272 778.524 255.351 778.519H251.113V786.634L247.543 786.679ZM251.149 774.958H255.387C256.35 775.004 257.295 774.682 258.028 774.056C258.327 773.835 258.57 773.547 258.736 773.215C258.902 772.883 258.987 772.516 258.984 772.144C258.983 771.774 258.896 771.408 258.73 771.077C258.564 770.745 258.324 770.456 258.028 770.233C257.287 769.621 256.348 769.3 255.387 769.331H251.149V774.958Z" fill="#1D1D1B"/>
<path id="Vector_11" d="M277.721 783.812L276.387 786.679H272.438L282.148 765.67L291.389 786.643H287.467L286.196 783.776L277.721 783.812ZM282.058 774.408L279.353 780.205H284.582L282.058 774.408Z" fill="#1D1D1B"/>
<path id="Vector_12" d="M305.039 786.679V765.67H308.645V783.073H318.301V786.679H305.039Z" fill="#1D1D1B"/>
<path id="Vector_13" d="M336.838 783.812L335.504 786.679H331.546L341.265 765.67L350.506 786.643H346.585L345.313 783.776L336.838 783.812ZM341.175 774.408L338.47 780.205H343.699L341.175 774.408Z" fill="#1D1D1B"/>
</g>
<g id="Group">
<path id="Vector_14" d="M12.2574 778.034H3.54605V786.681H0V765.841H3.54605V774.456H12.2545V765.841H15.8005L15.8328 786.681H12.2545V778.034H12.2574Z" fill="#1D1D1B"/>
<path id="Vector_15" d="M44.0492 786.772V776.732L36.9219 786.676L29.7332 776.699V786.772H26.1872V765.616L36.9249 780.565L47.5981 765.616V786.772H44.0521H44.0492Z" fill="#1D1D1B"/>
<path id="Vector_16" d="M57.9529 786.681L66.9483 769.419H57.9851V765.841H72.8076L63.8122 783.135H72.7754V786.681H57.9529Z" fill="#1D1D1B"/>
<path id="Vector_17" d="M83.1621 786.681V765.841H96.339V769.419H86.7433V774.456H93.9642V778.034H86.7433V783.132H96.339V786.678H83.1621V786.681Z" fill="#1D1D1B"/>
</g>
<g id="{vibe_coding}">
<path d="M212.184 566.326V567.448C211.77 567.448 211.394 567.49 211.053 567.575C210.719 567.655 210.458 567.794 210.271 567.992C210.09 568.19 210.014 568.462 210.042 568.808L210.399 572.293C210.45 572.769 210.422 573.163 210.314 573.475C210.206 573.786 210.025 574.03 209.77 574.206C209.521 574.381 209.2 574.506 208.809 574.58C209.206 574.648 209.532 574.767 209.787 574.937C210.042 575.101 210.22 575.339 210.322 575.651C210.424 575.957 210.45 576.362 210.399 576.866L210.042 580.352C210.014 580.703 210.09 580.978 210.271 581.176C210.453 581.375 210.713 581.513 211.053 581.593C211.394 581.672 211.77 581.712 212.184 581.712V582.834C211.708 582.834 211.252 582.791 210.815 582.706C210.379 582.627 209.994 582.488 209.659 582.29C209.325 582.091 209.073 581.819 208.903 581.474C208.733 581.134 208.676 580.703 208.733 580.182L209.073 576.951C209.118 576.56 209.081 576.232 208.962 575.965C208.849 575.699 208.6 575.498 208.214 575.362C207.835 575.22 207.265 575.149 206.506 575.149V574.01C207.265 574.01 207.835 573.942 208.214 573.806C208.6 573.67 208.849 573.469 208.962 573.203C209.081 572.936 209.118 572.61 209.073 572.225L208.733 568.978C208.676 568.457 208.733 568.026 208.903 567.686C209.073 567.34 209.322 567.068 209.651 566.87C209.985 566.671 210.371 566.533 210.807 566.453C211.249 566.368 211.708 566.326 212.184 566.326Z" fill="#6C6C6C"/>
<path d="M223.534 571.579L220.278 580.53H218.621L215.391 571.579H216.904L219.496 579.23L222.055 571.579H223.534Z" fill="#6C6C6C"/>
<path d="M230.455 571.579V579.4H232.98V580.53H226.265V579.4H229.027V572.71H226.35V571.579H230.455ZM229.316 567.388C229.634 567.388 229.886 567.485 230.073 567.677C230.266 567.87 230.362 568.105 230.362 568.383C230.362 568.672 230.266 568.916 230.073 569.114C229.886 569.307 229.634 569.403 229.316 569.403C229.016 569.403 228.769 569.307 228.577 569.114C228.384 568.916 228.288 568.672 228.288 568.383C228.288 568.105 228.384 567.87 228.577 567.677C228.769 567.485 229.016 567.388 229.316 567.388Z" fill="#6C6C6C"/>
<path d="M237.207 572.744C237.535 572.313 237.912 571.981 238.337 571.749C238.768 571.511 239.241 571.392 239.757 571.392C240.556 571.392 241.202 571.585 241.695 571.97C242.188 572.355 242.548 572.9 242.774 573.602C243.001 574.299 243.114 575.115 243.114 576.05C243.114 576.951 242.978 577.756 242.706 578.464C242.434 579.167 242.035 579.72 241.508 580.122C240.987 580.524 240.34 580.726 239.57 580.726C238.533 580.726 237.719 580.352 237.13 579.604L237.028 580.53H235.779V567.975L237.207 567.796V572.744ZM239.23 579.57C239.978 579.57 240.553 579.281 240.955 578.703C241.358 578.124 241.559 577.238 241.559 576.042C241.559 575.26 241.48 574.611 241.321 574.095C241.162 573.574 240.924 573.186 240.607 572.931C240.295 572.67 239.91 572.54 239.451 572.54C238.952 572.54 238.513 572.69 238.133 572.99C237.759 573.285 237.45 573.614 237.207 573.976V578.413C237.439 578.765 237.731 579.045 238.082 579.255C238.439 579.465 238.822 579.57 239.23 579.57Z" fill="#6C6C6C"/>
<path d="M246.755 576.56C246.783 577.252 246.916 577.818 247.154 578.26C247.392 578.697 247.707 579.02 248.098 579.23C248.489 579.434 248.914 579.536 249.373 579.536C249.832 579.536 250.245 579.468 250.614 579.332C250.988 579.196 251.37 578.994 251.761 578.728L252.433 579.672C252.014 580 251.535 580.258 250.996 580.445C250.464 580.632 249.917 580.726 249.356 580.726C248.489 580.726 247.749 580.53 247.137 580.139C246.525 579.748 246.058 579.204 245.734 578.507C245.417 577.804 245.258 576.991 245.258 576.067C245.258 575.161 245.42 574.356 245.743 573.653C246.066 572.951 246.519 572.398 247.103 571.996C247.687 571.593 248.375 571.392 249.169 571.392C249.922 571.392 250.571 571.571 251.115 571.928C251.659 572.279 252.076 572.783 252.365 573.441C252.66 574.092 252.807 574.872 252.807 575.778C252.807 575.931 252.804 576.076 252.798 576.212C252.793 576.342 252.784 576.458 252.773 576.56H246.755ZM249.186 572.565C248.523 572.565 247.967 572.8 247.52 573.271C247.078 573.741 246.825 574.469 246.763 575.455H251.43C251.413 574.498 251.203 573.778 250.801 573.296C250.398 572.809 249.86 572.565 249.186 572.565Z" fill="#6C6C6C"/>
<path d="M254.628 583.616V582.366H263.128V583.616H254.628Z" fill="#6C6C6C"/>
<path d="M269.387 579.493C269.834 579.493 270.251 579.419 270.636 579.272C271.027 579.125 271.387 578.938 271.716 578.711L272.413 579.646C272.022 579.98 271.551 580.244 271.002 580.437C270.452 580.629 269.914 580.726 269.387 580.726C268.497 580.726 267.738 580.536 267.108 580.156C266.485 579.771 266.009 579.232 265.68 578.541C265.352 577.844 265.187 577.028 265.187 576.093C265.187 575.197 265.352 574.396 265.68 573.687C266.015 572.973 266.494 572.412 267.117 572.004C267.746 571.596 268.508 571.392 269.404 571.392C269.976 571.392 270.512 571.48 271.01 571.656C271.515 571.826 271.976 572.083 272.396 572.429L271.699 573.381C271.319 573.115 270.937 572.917 270.551 572.786C270.171 572.65 269.783 572.582 269.387 572.582C268.616 572.582 267.981 572.871 267.482 573.449C266.984 574.027 266.734 574.908 266.734 576.093C266.734 576.886 266.848 577.535 267.074 578.039C267.307 578.538 267.621 578.907 268.018 579.145C268.42 579.377 268.877 579.493 269.387 579.493Z" fill="#6C6C6C"/>
<path d="M278.603 571.392C279.447 571.392 280.153 571.585 280.72 571.97C281.292 572.35 281.72 572.888 282.003 573.585C282.292 574.282 282.437 575.104 282.437 576.05C282.437 576.963 282.289 577.77 281.995 578.473C281.7 579.176 281.267 579.728 280.694 580.131C280.127 580.527 279.425 580.726 278.586 580.726C277.747 580.726 277.042 580.533 276.469 580.148C275.897 579.762 275.463 579.221 275.169 578.524C274.88 577.821 274.735 577.002 274.735 576.067C274.735 575.144 274.883 574.33 275.177 573.628C275.472 572.925 275.906 572.378 276.478 571.987C277.056 571.59 277.764 571.392 278.603 571.392ZM278.603 572.557C277.832 572.557 277.249 572.843 276.852 573.415C276.461 573.982 276.265 574.866 276.265 576.067C276.265 577.246 276.458 578.122 276.843 578.694C277.234 579.266 277.815 579.553 278.586 579.553C279.357 579.553 279.935 579.266 280.32 578.694C280.711 578.122 280.907 577.24 280.907 576.05C280.907 574.86 280.714 573.982 280.329 573.415C279.943 572.843 279.368 572.557 278.603 572.557Z" fill="#6C6C6C"/>
<path d="M290.404 567.796L291.832 567.975V580.53H290.582L290.446 579.349C290.112 579.825 289.726 580.173 289.29 580.394C288.859 580.615 288.397 580.726 287.904 580.726C287.128 580.726 286.488 580.53 285.983 580.139C285.479 579.748 285.105 579.204 284.861 578.507C284.618 577.804 284.496 576.991 284.496 576.067C284.496 575.172 284.635 574.373 284.912 573.67C285.19 572.962 285.589 572.406 286.111 572.004C286.638 571.596 287.27 571.392 288.006 571.392C288.522 571.392 288.975 571.483 289.367 571.664C289.758 571.84 290.103 572.1 290.404 572.446V567.796ZM288.38 572.54C287.632 572.54 287.057 572.831 286.655 573.415C286.252 573.999 286.051 574.883 286.051 576.067C286.051 576.838 286.133 577.484 286.298 578.005C286.462 578.527 286.703 578.918 287.02 579.179C287.343 579.439 287.737 579.57 288.202 579.57C288.712 579.57 289.146 579.425 289.503 579.136C289.865 578.847 290.166 578.521 290.404 578.158V573.687C290.16 573.325 289.865 573.044 289.52 572.846C289.174 572.642 288.794 572.54 288.38 572.54Z" fill="#6C6C6C"/>
<path d="M299.433 571.579V579.4H301.958V580.53H295.242V579.4H298.005V572.71H295.327V571.579H299.433ZM298.294 567.388C298.611 567.388 298.863 567.485 299.05 567.677C299.243 567.87 299.339 568.105 299.339 568.383C299.339 568.672 299.243 568.916 299.05 569.114C298.863 569.307 298.611 569.403 298.294 569.403C297.994 569.403 297.747 569.307 297.554 569.114C297.362 568.916 297.265 568.672 297.265 568.383C297.265 568.105 297.362 567.87 297.554 567.677C297.747 567.485 297.994 567.388 298.294 567.388Z" fill="#6C6C6C"/>
<path d="M304.756 580.53V571.579H305.972L306.082 572.82C306.445 572.361 306.898 572.01 307.442 571.766C307.992 571.517 308.525 571.392 309.04 571.392C309.919 571.392 310.556 571.624 310.953 572.089C311.355 572.554 311.557 573.2 311.557 574.027V580.53H310.128V575.081C310.128 574.469 310.094 573.976 310.026 573.602C309.958 573.223 309.817 572.948 309.601 572.778C309.386 572.602 309.052 572.514 308.598 572.514C308.247 572.514 307.916 572.591 307.604 572.744C307.298 572.897 307.023 573.089 306.779 573.322C306.541 573.548 306.343 573.778 306.184 574.01V580.53H304.756Z" fill="#6C6C6C"/>
<path d="M321.887 570.627L322.329 571.97C321.949 572.089 321.544 572.163 321.113 572.191C320.682 572.219 320.215 572.234 319.71 572.234C320.226 572.472 320.614 572.78 320.875 573.16C321.136 573.534 321.266 573.976 321.266 574.486C321.266 575.076 321.133 575.6 320.866 576.059C320.6 576.518 320.215 576.878 319.71 577.138C319.212 577.399 318.608 577.529 317.9 577.529C317.599 577.529 317.347 577.515 317.143 577.487C316.945 577.459 316.752 577.416 316.565 577.359C316.429 577.45 316.316 577.575 316.225 577.733C316.14 577.892 316.098 578.056 316.098 578.226C316.098 578.442 316.183 578.62 316.353 578.762C316.523 578.904 316.837 578.975 317.296 578.975H318.911C319.512 578.975 320.05 579.082 320.526 579.298C321.008 579.513 321.385 579.802 321.657 580.165C321.935 580.527 322.074 580.941 322.074 581.406C322.074 582.284 321.7 582.958 320.951 583.429C320.209 583.899 319.158 584.134 317.798 584.134C316.846 584.134 316.095 584.035 315.545 583.837C314.995 583.644 314.602 583.347 314.364 582.944C314.131 582.548 314.015 582.046 314.015 581.44H315.307C315.307 581.785 315.375 582.072 315.511 582.298C315.647 582.525 315.894 582.692 316.251 582.8C316.608 582.913 317.121 582.97 317.789 582.97C318.447 582.97 318.982 582.913 319.396 582.8C319.815 582.692 320.124 582.528 320.322 582.307C320.526 582.091 320.628 581.822 320.628 581.499C320.628 581.074 320.436 580.754 320.05 580.539C319.665 580.323 319.183 580.216 318.605 580.216H317.007C316.237 580.216 315.667 580.046 315.299 579.706C314.936 579.366 314.755 578.975 314.755 578.533C314.755 578.243 314.837 577.963 315.001 577.691C315.171 577.419 315.418 577.178 315.741 576.968C315.225 576.696 314.845 576.359 314.602 575.957C314.358 575.554 314.236 575.067 314.236 574.495C314.236 573.888 314.386 573.353 314.687 572.888C314.987 572.418 315.406 572.049 315.945 571.783C316.483 571.517 317.104 571.384 317.806 571.384C318.56 571.378 319.172 571.347 319.642 571.29C320.113 571.228 320.515 571.14 320.849 571.027C321.189 570.913 321.535 570.78 321.887 570.627ZM317.806 572.429C317.087 572.429 316.554 572.625 316.208 573.016C315.868 573.401 315.698 573.894 315.698 574.495C315.698 575.101 315.874 575.6 316.225 575.991C316.577 576.382 317.115 576.577 317.84 576.577C318.475 576.577 318.957 576.393 319.285 576.025C319.62 575.656 319.787 575.144 319.787 574.486C319.787 573.812 319.62 573.302 319.285 572.956C318.957 572.605 318.464 572.429 317.806 572.429Z" fill="#6C6C6C"/>
<path d="M325.28 566.326C325.756 566.326 326.212 566.368 326.649 566.453C327.085 566.533 327.47 566.671 327.805 566.87C328.139 567.068 328.391 567.34 328.561 567.686C328.737 568.026 328.794 568.457 328.731 568.978L328.391 572.225C328.346 572.61 328.394 572.936 328.536 573.203C328.683 573.469 328.949 573.67 329.335 573.806C329.72 573.942 330.261 574.01 330.958 574.01V575.149C330.267 575.149 329.726 575.22 329.335 575.362C328.949 575.498 328.683 575.699 328.536 575.965C328.394 576.232 328.346 576.56 328.391 576.951L328.731 580.182C328.788 580.703 328.731 581.134 328.561 581.474C328.391 581.819 328.139 582.091 327.805 582.29C327.476 582.488 327.091 582.627 326.649 582.706C326.212 582.791 325.756 582.834 325.28 582.834V581.712C325.694 581.712 326.068 581.672 326.402 581.593C326.742 581.513 327.006 581.375 327.193 581.176C327.38 580.978 327.456 580.703 327.422 580.352L327.065 576.866C327.014 576.362 327.043 575.957 327.15 575.651C327.258 575.339 327.451 575.101 327.728 574.937C328.012 574.772 328.383 574.659 328.842 574.597C328.4 574.523 328.037 574.396 327.754 574.214C327.476 574.033 327.281 573.786 327.167 573.475C327.054 573.163 327.02 572.769 327.065 572.293L327.422 568.808C327.456 568.462 327.38 568.19 327.193 567.992C327.006 567.794 326.745 567.655 326.411 567.575C326.076 567.49 325.699 567.448 325.28 567.448V566.326Z" fill="#6C6C6C"/>
</g>
<g id="beyond">
<path d="M210.396 556.271C207.091 556.271 204.683 554.638 203.582 552.435V555.822H197.665V524.812H203.582V537.828C204.765 535.788 207.254 533.992 210.396 533.992C215.619 533.992 219.699 537.869 219.699 544.927V545.254C219.699 552.313 215.7 556.271 210.396 556.271ZM208.641 551.66C211.905 551.66 213.701 549.457 213.701 545.295V544.968C213.701 540.643 211.579 538.521 208.6 538.521C205.5 538.521 203.378 540.684 203.378 544.968V545.295C203.378 549.579 205.418 551.66 208.641 551.66Z" fill="#1D1D1B"/>
<path d="M233.478 556.271C227.032 556.271 222.339 552.231 222.339 545.417V545.091C222.339 538.358 227.113 533.992 233.315 533.992C238.824 533.992 243.72 537.216 243.72 544.846V546.478H228.337C228.501 550.028 230.418 552.068 233.642 552.068C236.375 552.068 237.722 550.885 238.089 549.089H243.679C242.985 553.7 239.313 556.271 233.478 556.271ZM228.419 542.847H237.967C237.763 539.623 236.131 538.073 233.315 538.073C230.663 538.073 228.868 539.827 228.419 542.847Z" fill="#1D1D1B"/>
<path d="M249.489 563.085L253.242 553.659L244.756 534.482H251.121L256.303 547.294L261.077 534.482H266.748L255.201 563.085H249.489Z" fill="#1D1D1B"/>
<path d="M278.866 551.782C282.171 551.782 284.089 549.334 284.089 545.295V545.009C284.089 540.929 282.171 538.481 278.866 538.481C275.602 538.481 273.643 540.847 273.643 544.927V545.254C273.643 549.334 275.52 551.782 278.866 551.782ZM278.825 556.271C272.46 556.271 267.605 552.027 267.605 545.376V545.05C267.605 538.358 272.46 533.992 278.866 533.992C285.272 533.992 290.087 538.277 290.087 544.927V545.254C290.087 551.986 285.231 556.271 278.825 556.271Z" fill="#1D1D1B"/>
<path d="M294.053 555.822V534.482H299.97V537.869C301.03 535.747 303.356 533.992 306.906 533.992C311.109 533.992 314.087 536.522 314.087 542.234V555.822H308.171V543.091C308.171 540.194 307.028 538.807 304.417 538.807C301.887 538.807 299.97 540.358 299.97 543.499V555.822H294.053Z" fill="#1D1D1B"/>
<path d="M327.154 556.271C321.972 556.271 317.891 552.557 317.891 545.458V545.131C317.891 538.113 321.931 533.992 327.276 533.992C330.703 533.992 332.825 535.502 334.008 537.665V524.812H339.884V555.822H334.008V552.272C332.907 554.434 330.295 556.271 327.154 556.271ZM328.908 551.66C332.009 551.66 334.172 549.579 334.172 545.254V544.927C334.172 540.684 332.295 538.521 329.071 538.521C325.766 538.521 323.93 540.766 323.93 545.009V545.335C323.93 549.579 325.97 551.66 328.908 551.66Z" fill="#1D1D1B"/>
</g>
<path id="Line 2 (Stroke)" d="M267.127 0L270.129 3.57916e-08L270.129 520.248L267.127 520.248L267.127 0Z" fill="url(#paint0_linear_2_1984)"/>
</g>
<defs>
<linearGradient id="paint0_linear_2_1984" x1="270.254" y1="520.248" x2="270.254" y2="-6.3045e-09" gradientUnits="userSpaceOnUse">
<stop stop-color="#1D1D1B"/>
<stop offset="0.557692" stop-color="#FF6100"/>
</linearGradient>
</defs>
</svg>
