<svg width="538" height="787" viewBox="0 0 538 787" fill="none" xmlns="http://www.w3.org/2000/svg">
<path d="M537.427 396.956H468.096V418.707H512.278V692.293H468.096V714.044H537.427V396.956Z" fill="#1D1D1B"/>
<path d="M0 397.183H69.331V418.934H25.1495V692.52H69.331V714.27H0V397.183Z" fill="#1D1D1B"/>
<path d="M153.389 769.016L151.067 766.722L134.811 782.78L137.133 785.074L153.389 769.016Z" fill="#FF6100"/>
<path d="M153.389 782.78L137.133 766.722L134.81 769.016L151.067 785.074L153.389 782.78Z" fill="#FF6100"/>
<path d="M390.802 777.454C391.389 778.318 391.703 779.338 391.704 780.383C391.703 781.257 391.479 782.116 391.055 782.879C390.595 783.705 389.958 784.419 389.189 784.97C388.441 785.514 387.606 785.928 386.72 786.196C384.84 786.768 382.833 786.768 380.953 786.196C380.067 785.928 379.232 785.514 378.484 784.97C377.526 784.303 376.794 783.36 376.384 782.266L379.565 780.464C379.589 780.793 379.712 781.107 379.917 781.365C380.113 781.624 380.35 781.85 380.619 782.032C381.071 782.344 381.57 782.581 382.097 782.735C383.229 783.075 384.435 783.075 385.567 782.735C386.094 782.581 386.593 782.344 387.045 782.032C387.341 781.854 387.591 781.609 387.774 781.316C387.957 781.023 388.069 780.691 388.099 780.347C388.091 779.938 387.945 779.544 387.684 779.229C387.379 778.854 386.998 778.547 386.567 778.328C385.611 777.949 384.601 777.723 383.575 777.661C382.22 777.572 380.888 777.268 379.628 776.76C378.535 776.288 377.598 775.516 376.925 774.534C376.301 773.623 375.968 772.546 375.969 771.442C375.969 770.566 376.192 769.703 376.618 768.937C377.064 768.12 377.678 767.407 378.421 766.846C379.169 766.302 380.004 765.888 380.89 765.62C382.77 765.049 384.777 765.049 386.657 765.62C387.543 765.888 388.378 766.302 389.126 766.846C390.089 767.517 390.832 768.458 391.262 769.55L388.045 771.397C388.008 771.059 387.893 770.733 387.711 770.446C387.528 770.158 387.281 769.916 386.991 769.739C386.538 769.428 386.039 769.191 385.513 769.036C384.381 768.698 383.175 768.698 382.043 769.036C381.516 769.19 381.017 769.428 380.565 769.739C380.269 769.917 380.019 770.162 379.836 770.455C379.653 770.748 379.541 771.08 379.511 771.424C379.523 771.859 379.678 772.277 379.953 772.614C380.276 773.024 380.706 773.336 381.196 773.515C381.584 773.679 381.989 773.797 382.404 773.867C382.872 773.951 383.413 774.035 384.026 774.119C385.492 774.248 386.926 774.62 388.27 775.219C389.282 775.749 390.151 776.516 390.802 777.454Z" fill="#1D1D1B"/>
<path d="M405.275 786.403V765.449H418.522V769.054H408.88V774.119H416.143V777.724H408.88V782.852H418.531V786.457L405.275 786.403Z" fill="#1D1D1B"/>
<path d="M440.309 774.146L434.641 786.412H430.694L440.409 765.449L449.645 786.412H445.725L440.309 774.146Z" fill="#1D1D1B"/>
<path d="M474.211 786.403L467.173 777.166V786.403H463.569V765.44H471.247C472.229 765.435 473.206 765.603 474.13 765.936C475.005 766.249 475.81 766.73 476.5 767.351C477.158 767.919 477.689 768.619 478.059 769.406C478.511 770.373 478.684 771.447 478.56 772.507C478.436 773.567 478.019 774.571 477.356 775.408C476.656 776.304 475.72 776.988 474.653 777.382C474.222 777.543 473.779 777.67 473.328 777.76C472.968 777.849 472.6 777.903 472.229 777.923L478.6 786.394L474.211 786.403ZM467.173 769.045V774.687H470.273C471.295 774.727 472.315 774.552 473.265 774.173C473.738 773.981 474.154 773.671 474.473 773.272C474.802 772.881 474.983 772.387 474.986 771.875C474.981 771.52 474.898 771.17 474.742 770.851C474.586 770.531 474.362 770.25 474.085 770.028C473.286 769.356 472.261 769.014 471.219 769.072L467.173 769.045Z" fill="#1D1D1B"/>
<path d="M501.237 786.601C499.371 786.612 497.538 786.11 495.938 785.15C494.335 784.207 493.005 782.862 492.081 781.248C490.67 778.799 490.283 775.891 491.006 773.158C491.728 770.425 493.501 768.088 495.938 766.657C497.542 765.708 499.373 765.213 501.237 765.224C502.711 765.22 504.17 765.527 505.517 766.125C506.875 766.722 508.087 767.608 509.068 768.721L506.428 771.109C505.765 770.377 504.958 769.791 504.057 769.388C503.054 768.941 501.958 768.739 500.861 768.8C499.764 768.862 498.697 769.183 497.749 769.739C496.149 770.709 494.989 772.262 494.513 774.072C494.037 775.881 494.283 777.805 495.199 779.437C495.81 780.516 496.692 781.417 497.758 782.05C498.735 782.637 499.843 782.97 500.982 783.017C502.12 783.064 503.252 782.825 504.274 782.321C505.215 781.854 506.045 781.19 506.707 780.374L509.509 782.6C508.523 783.842 507.27 784.845 505.842 785.535C504.414 786.224 502.849 786.583 501.264 786.583L501.237 786.601Z" fill="#1D1D1B"/>
<path d="M533.823 777.706H525.064V786.403H521.459V765.449H525.064V774.11H533.823V765.449H537.428V786.412H533.823V777.706Z" fill="#1D1D1B"/>
<path d="M191.69 786.304V765.305H195.295V786.304H191.69Z" fill="#1D1D1B"/>
<path d="M228.727 786.304V776.21L221.518 786.214L214.309 776.183V786.304H210.704V765.026L221.518 780.058L232.251 765.026V786.304H228.727Z" fill="#1D1D1B"/>
<path d="M247.425 786.304V765.305H255.229C256.15 765.3 257.065 765.456 257.932 765.765C258.775 766.064 259.556 766.513 260.239 767.09C260.918 767.678 261.47 768.399 261.861 769.208C262.24 769.99 262.436 770.848 262.436 771.718C262.436 772.587 262.24 773.445 261.861 774.228C261.462 775.037 260.912 775.762 260.239 776.363C259.556 776.94 258.775 777.389 257.932 777.688C257.065 777.997 256.15 778.153 255.229 778.148H250.994V786.259L247.425 786.304ZM251.03 774.588H255.265C256.228 774.635 257.172 774.312 257.905 773.687C258.204 773.466 258.446 773.178 258.612 772.846C258.778 772.514 258.863 772.147 258.861 771.776C258.859 771.406 258.772 771.04 258.607 770.709C258.441 770.378 258.201 770.089 257.905 769.865C257.164 769.254 256.226 768.933 255.265 768.964H251.03V774.588Z" fill="#1D1D1B"/>
<path d="M277.589 783.438L276.255 786.304H272.308L282.013 765.305L291.25 786.268H287.33L286.06 783.402L277.589 783.438ZM281.923 774.038L279.22 779.833H284.446L281.923 774.038Z" fill="#1D1D1B"/>
<path d="M304.893 786.304V765.305H308.498V782.699H318.149V786.304H304.893Z" fill="#1D1D1B"/>
<path d="M336.678 783.438L335.344 786.304H331.388L341.102 765.305L350.339 786.268H346.419L345.149 783.402L336.678 783.438ZM341.012 774.038L338.309 779.833H343.536L341.012 774.038Z" fill="#1D1D1B"/>
<path d="M12.2516 777.663H3.54435V786.306H0V765.476H3.54435V774.087H12.2487V765.476H15.793L15.8252 786.306H12.2487V777.663H12.2516Z" fill="#1D1D1B"/>
<path d="M44.0282 786.397V776.361L36.9043 786.3L29.719 776.329V786.397H26.1747V765.251L36.9073 780.192L47.5754 765.251V786.397H44.0311H44.0282Z" fill="#1D1D1B"/>
<path d="M57.9252 786.306L66.9164 769.052H57.9574V765.476H72.7729L63.7818 782.762H72.7407V786.306H57.9252Z" fill="#1D1D1B"/>
<path d="M83.1224 786.306V765.476H96.293V769.052H86.7019V774.087H93.9194V777.663H86.7019V782.759H96.293V786.303H83.1224V786.306Z" fill="#1D1D1B"/>
<path d="M212.083 566.056V567.177C211.669 567.177 211.293 567.22 210.953 567.305C210.619 567.384 210.358 567.523 210.171 567.721C209.99 567.919 209.913 568.191 209.942 568.537L210.299 572.02C210.35 572.496 210.321 572.89 210.214 573.201C210.106 573.513 209.925 573.756 209.67 573.932C209.421 574.107 209.101 574.232 208.71 574.306C209.106 574.374 209.432 574.493 209.687 574.663C209.942 574.827 210.12 575.065 210.222 575.376C210.324 575.682 210.35 576.087 210.299 576.591L209.942 580.075C209.913 580.426 209.99 580.701 210.171 580.899C210.352 581.097 210.613 581.236 210.953 581.315C211.293 581.395 211.669 581.434 212.083 581.434V582.556C211.607 582.556 211.151 582.513 210.715 582.428C210.279 582.349 209.894 582.21 209.559 582.012C209.225 581.814 208.973 581.542 208.803 581.196C208.633 580.856 208.577 580.426 208.633 579.905L208.973 576.676C209.018 576.285 208.982 575.957 208.863 575.691C208.749 575.424 208.5 575.223 208.115 575.087C207.736 574.946 207.166 574.875 206.407 574.875V573.736C207.166 573.736 207.736 573.668 208.115 573.533C208.5 573.397 208.749 573.196 208.863 572.929C208.982 572.663 209.018 572.337 208.973 571.952L208.633 568.707C208.577 568.185 208.633 567.755 208.803 567.415C208.973 567.07 209.222 566.798 209.551 566.599C209.885 566.401 210.27 566.262 210.706 566.183C211.148 566.098 211.607 566.056 212.083 566.056Z" fill="#6C6C6C"/>
<path d="M223.427 571.306L220.173 580.253H218.517L215.288 571.306H216.8L219.392 578.953L221.949 571.306H223.427Z" fill="#6C6C6C"/>
<path d="M230.345 571.306V579.123H232.869V580.253H226.157V579.123H228.918V572.436H226.242V571.306H230.345ZM229.207 567.118C229.524 567.118 229.776 567.214 229.963 567.407C230.156 567.599 230.252 567.834 230.252 568.112C230.252 568.401 230.156 568.644 229.963 568.843C229.776 569.035 229.524 569.131 229.207 569.131C228.907 569.131 228.66 569.035 228.468 568.843C228.275 568.644 228.179 568.401 228.179 568.112C228.179 567.834 228.275 567.599 228.468 567.407C228.66 567.214 228.907 567.118 229.207 567.118Z" fill="#6C6C6C"/>
<path d="M237.093 572.47C237.422 572.04 237.799 571.709 238.224 571.476C238.654 571.238 239.127 571.12 239.642 571.12C240.441 571.12 241.087 571.312 241.58 571.697C242.072 572.082 242.432 572.626 242.659 573.329C242.885 574.025 242.999 574.841 242.999 575.776C242.999 576.676 242.863 577.481 242.591 578.189C242.319 578.891 241.919 579.443 241.393 579.845C240.872 580.248 240.226 580.449 239.455 580.449C238.419 580.449 237.606 580.075 237.017 579.327L236.915 580.253H235.666V567.704L237.093 567.526V572.47ZM239.116 579.293C239.863 579.293 240.438 579.004 240.84 578.426C241.243 577.849 241.444 576.962 241.444 575.767C241.444 574.985 241.364 574.337 241.206 573.821C241.047 573.3 240.809 572.912 240.492 572.657C240.181 572.397 239.795 572.267 239.337 572.267C238.838 572.267 238.399 572.417 238.02 572.717C237.646 573.011 237.337 573.34 237.093 573.702V578.138C237.326 578.489 237.617 578.769 237.969 578.979C238.325 579.188 238.708 579.293 239.116 579.293Z" fill="#6C6C6C"/>
<path d="M246.637 576.285C246.665 576.976 246.798 577.543 247.036 577.985C247.274 578.421 247.588 578.744 247.979 578.953C248.37 579.157 248.795 579.259 249.254 579.259C249.713 579.259 250.126 579.191 250.494 579.055C250.868 578.919 251.25 578.718 251.641 578.452L252.312 579.395C251.893 579.724 251.415 579.981 250.877 580.168C250.344 580.355 249.798 580.449 249.237 580.449C248.37 580.449 247.631 580.253 247.019 579.862C246.407 579.472 245.94 578.928 245.617 578.231C245.3 577.529 245.141 576.716 245.141 575.793C245.141 574.886 245.303 574.082 245.626 573.38C245.949 572.677 246.402 572.125 246.985 571.723C247.569 571.321 248.257 571.12 249.05 571.12C249.803 571.12 250.452 571.298 250.996 571.655C251.539 572.006 251.956 572.51 252.245 573.167C252.539 573.819 252.686 574.597 252.686 575.504C252.686 575.657 252.683 575.801 252.678 575.937C252.672 576.067 252.664 576.183 252.652 576.285H246.637ZM249.067 572.292C248.404 572.292 247.849 572.527 247.402 572.997C246.96 573.467 246.708 574.195 246.645 575.181H251.31C251.293 574.224 251.083 573.504 250.681 573.023C250.279 572.536 249.741 572.292 249.067 572.292Z" fill="#6C6C6C"/>
<path d="M254.506 583.337V582.088H263.003V583.337H254.506Z" fill="#6C6C6C"/>
<path d="M269.258 579.217C269.706 579.217 270.122 579.143 270.507 578.996C270.898 578.848 271.258 578.662 271.586 578.435L272.283 579.37C271.892 579.704 271.422 579.967 270.872 580.16C270.323 580.352 269.785 580.449 269.258 580.449C268.369 580.449 267.61 580.259 266.981 579.879C266.358 579.494 265.882 578.956 265.554 578.265C265.225 577.568 265.061 576.753 265.061 575.818C265.061 574.923 265.225 574.122 265.554 573.414C265.888 572.7 266.367 572.139 266.99 571.731C267.618 571.323 268.38 571.12 269.275 571.12C269.847 571.12 270.382 571.207 270.881 571.383C271.385 571.553 271.847 571.811 272.266 572.156L271.569 573.108C271.19 572.841 270.807 572.643 270.422 572.513C270.043 572.377 269.655 572.309 269.258 572.309C268.488 572.309 267.853 572.598 267.355 573.176C266.856 573.753 266.607 574.634 266.607 575.818C266.607 576.611 266.721 577.26 266.947 577.764C267.179 578.262 267.494 578.63 267.89 578.868C268.292 579.101 268.748 579.217 269.258 579.217Z" fill="#6C6C6C"/>
<path d="M278.47 571.12C279.314 571.12 280.019 571.312 280.586 571.697C281.158 572.077 281.586 572.615 281.869 573.312C282.158 574.008 282.302 574.83 282.302 575.776C282.302 576.688 282.155 577.495 281.86 578.197C281.566 578.899 281.132 579.452 280.56 579.854C279.994 580.25 279.291 580.449 278.453 580.449C277.615 580.449 276.91 580.256 276.338 579.871C275.765 579.486 275.332 578.945 275.038 578.248C274.749 577.546 274.604 576.727 274.604 575.793C274.604 574.869 274.752 574.056 275.046 573.354C275.341 572.652 275.774 572.105 276.346 571.714C276.924 571.318 277.632 571.12 278.47 571.12ZM278.47 572.284C277.7 572.284 277.116 572.57 276.72 573.142C276.329 573.708 276.134 574.592 276.134 575.793C276.134 576.971 276.326 577.846 276.711 578.418C277.102 578.99 277.683 579.276 278.453 579.276C279.223 579.276 279.801 578.99 280.186 578.418C280.577 577.846 280.773 576.965 280.773 575.776C280.773 574.586 280.58 573.708 280.195 573.142C279.81 572.57 279.235 572.284 278.47 572.284Z" fill="#6C6C6C"/>
<path d="M290.265 567.526L291.692 567.704V580.253H290.443L290.308 579.072C289.973 579.548 289.588 579.896 289.152 580.117C288.722 580.338 288.26 580.449 287.767 580.449C286.991 580.449 286.351 580.253 285.847 579.862C285.343 579.472 284.969 578.928 284.725 578.231C284.482 577.529 284.36 576.716 284.36 575.793C284.36 574.898 284.499 574.099 284.776 573.397C285.054 572.689 285.453 572.133 285.974 571.731C286.501 571.323 287.133 571.12 287.869 571.12C288.385 571.12 288.838 571.21 289.229 571.391C289.619 571.567 289.965 571.828 290.265 572.173V567.526ZM288.243 572.267C287.495 572.267 286.92 572.558 286.518 573.142C286.116 573.725 285.915 574.609 285.915 575.793C285.915 576.563 285.997 577.209 286.161 577.73C286.326 578.251 286.566 578.642 286.883 578.902C287.206 579.163 287.6 579.293 288.064 579.293C288.574 579.293 289.008 579.149 289.364 578.86C289.727 578.571 290.027 578.245 290.265 577.883V573.414C290.021 573.051 289.727 572.771 289.381 572.572C289.036 572.369 288.656 572.267 288.243 572.267Z" fill="#6C6C6C"/>
<path d="M299.29 571.306V579.123H301.814V580.253H295.101V579.123H297.863V572.436H295.186V571.306H299.29ZM298.152 567.118C298.469 567.118 298.721 567.214 298.908 567.407C299.1 567.599 299.197 567.834 299.197 568.112C299.197 568.401 299.1 568.644 298.908 568.843C298.721 569.035 298.469 569.131 298.152 569.131C297.851 569.131 297.605 569.035 297.412 568.843C297.22 568.644 297.124 568.401 297.124 568.112C297.124 567.834 297.22 567.599 297.412 567.407C297.605 567.214 297.851 567.118 298.152 567.118Z" fill="#6C6C6C"/>
<path d="M304.611 580.253V571.306H305.826L305.936 572.547C306.299 572.088 306.752 571.737 307.296 571.493C307.845 571.244 308.378 571.12 308.893 571.12C309.771 571.12 310.408 571.352 310.805 571.816C311.207 572.281 311.408 572.926 311.408 573.753V580.253H309.981V574.807C309.981 574.195 309.947 573.702 309.879 573.329C309.811 572.949 309.669 572.674 309.454 572.504C309.239 572.329 308.904 572.241 308.451 572.241C308.1 572.241 307.769 572.318 307.457 572.47C307.151 572.623 306.877 572.816 306.633 573.048C306.395 573.275 306.197 573.504 306.038 573.736V580.253H304.611Z" fill="#6C6C6C"/>
<path d="M321.733 570.355L322.175 571.697C321.795 571.816 321.39 571.89 320.96 571.918C320.529 571.947 320.062 571.961 319.558 571.961C320.073 572.199 320.461 572.507 320.722 572.887C320.982 573.261 321.113 573.702 321.113 574.212C321.113 574.801 320.98 575.325 320.713 575.784C320.447 576.243 320.062 576.603 319.558 576.863C319.059 577.124 318.456 577.254 317.748 577.254C317.448 577.254 317.196 577.24 316.992 577.212C316.794 577.183 316.601 577.141 316.414 577.084C316.278 577.175 316.165 577.299 316.074 577.458C315.989 577.617 315.947 577.781 315.947 577.951C315.947 578.166 316.032 578.344 316.202 578.486C316.372 578.628 316.686 578.698 317.145 578.698H318.759C319.36 578.698 319.898 578.806 320.374 579.021C320.855 579.236 321.232 579.525 321.504 579.888C321.781 580.25 321.92 580.664 321.92 581.128C321.92 582.006 321.546 582.68 320.798 583.151C320.056 583.621 319.006 583.856 317.646 583.856C316.695 583.856 315.944 583.757 315.395 583.558C314.845 583.366 314.452 583.068 314.214 582.666C313.981 582.27 313.865 581.768 313.865 581.162H315.157C315.157 581.508 315.225 581.794 315.361 582.02C315.497 582.247 315.743 582.414 316.1 582.522C316.457 582.635 316.969 582.692 317.638 582.692C318.295 582.692 318.83 582.635 319.244 582.522C319.663 582.414 319.971 582.25 320.17 582.029C320.374 581.814 320.476 581.545 320.476 581.222C320.476 580.797 320.283 580.477 319.898 580.262C319.513 580.046 319.031 579.939 318.453 579.939H316.856C316.086 579.939 315.516 579.769 315.148 579.429C314.786 579.089 314.604 578.698 314.604 578.257C314.604 577.968 314.687 577.687 314.851 577.415C315.021 577.144 315.267 576.903 315.59 576.693C315.075 576.421 314.695 576.084 314.452 575.682C314.208 575.28 314.086 574.793 314.086 574.221C314.086 573.615 314.236 573.079 314.537 572.615C314.837 572.145 315.256 571.777 315.794 571.51C316.332 571.244 316.952 571.111 317.655 571.111C318.408 571.105 319.02 571.074 319.49 571.018C319.96 570.955 320.362 570.867 320.696 570.754C321.036 570.641 321.382 570.508 321.733 570.355ZM317.655 572.156C316.935 572.156 316.403 572.352 316.057 572.742C315.718 573.128 315.548 573.62 315.548 574.221C315.548 574.827 315.723 575.325 316.074 575.716C316.426 576.107 316.964 576.302 317.689 576.302C318.323 576.302 318.805 576.118 319.133 575.75C319.467 575.382 319.634 574.869 319.634 574.212C319.634 573.538 319.467 573.028 319.133 572.683C318.805 572.332 318.312 572.156 317.655 572.156Z" fill="#6C6C6C"/>
<path d="M325.125 566.056C325.601 566.056 326.057 566.098 326.493 566.183C326.929 566.262 327.314 566.401 327.648 566.599C327.983 566.798 328.235 567.07 328.405 567.415C328.58 567.755 328.637 568.185 328.574 568.707L328.235 571.952C328.189 572.337 328.237 572.663 328.379 572.929C328.526 573.196 328.793 573.397 329.178 573.533C329.563 573.668 330.104 573.736 330.801 573.736V574.875C330.11 574.875 329.569 574.946 329.178 575.087C328.793 575.223 328.526 575.424 328.379 575.691C328.237 575.957 328.189 576.285 328.235 576.676L328.574 579.905C328.631 580.426 328.574 580.856 328.405 581.196C328.235 581.542 327.983 581.814 327.648 582.012C327.32 582.21 326.935 582.349 326.493 582.428C326.057 582.513 325.601 582.556 325.125 582.556V581.434C325.538 581.434 325.912 581.395 326.246 581.315C326.586 581.236 326.85 581.097 327.037 580.899C327.224 580.701 327.3 580.426 327.266 580.075L326.909 576.591C326.858 576.087 326.887 575.682 326.994 575.376C327.102 575.065 327.294 574.827 327.572 574.663C327.855 574.498 328.226 574.385 328.685 574.323C328.243 574.249 327.881 574.122 327.597 573.94C327.32 573.759 327.124 573.513 327.011 573.201C326.898 572.89 326.864 572.496 326.909 572.02L327.266 568.537C327.3 568.191 327.224 567.919 327.037 567.721C326.85 567.523 326.589 567.384 326.255 567.305C325.921 567.22 325.544 567.177 325.125 567.177V566.056Z" fill="#6C6C6C"/>
<path d="M210.295 556.005C206.992 556.005 204.586 554.374 203.485 552.172V555.557H197.571V524.562H203.485V537.571C204.667 535.532 207.155 533.738 210.295 533.738C215.516 533.738 219.594 537.612 219.594 544.668V544.994C219.594 552.049 215.597 556.005 210.295 556.005ZM208.542 551.397C211.804 551.397 213.599 549.194 213.599 545.035V544.708C213.599 540.385 211.478 538.265 208.501 538.265C205.401 538.265 203.281 540.426 203.281 544.708V545.035C203.281 549.317 205.32 551.397 208.542 551.397Z" fill="#1D1D1B"/>
<path d="M233.367 556.005C226.923 556.005 222.233 551.968 222.233 545.157V544.831C222.233 538.101 227.005 533.738 233.204 533.738C238.71 533.738 243.604 536.96 243.604 544.586V546.217H228.228C228.392 549.765 230.308 551.805 233.53 551.805C236.263 551.805 237.609 550.622 237.976 548.827H243.563C242.87 553.436 239.199 556.005 233.367 556.005ZM228.31 542.588H237.853C237.649 539.366 236.018 537.816 233.204 537.816C230.553 537.816 228.759 539.57 228.31 542.588Z" fill="#1D1D1B"/>
<path d="M249.37 562.816L253.122 553.395L244.639 534.227H251.001L256.18 547.033L260.952 534.227H266.621L255.079 562.816H249.37Z" fill="#1D1D1B"/>
<path d="M278.733 551.519C282.036 551.519 283.953 549.072 283.953 545.035V544.749C283.953 540.671 282.036 538.224 278.733 538.224C275.47 538.224 273.513 540.589 273.513 544.668V544.994C273.513 549.072 275.389 551.519 278.733 551.519ZM278.692 556.005C272.33 556.005 267.477 551.764 267.477 545.116V544.79C267.477 538.101 272.33 533.738 278.733 533.738C285.136 533.738 289.948 538.02 289.948 544.668V544.994C289.948 551.723 285.095 556.005 278.692 556.005Z" fill="#1D1D1B"/>
<path d="M293.913 555.557V534.227H299.826V537.612C300.887 535.491 303.211 533.738 306.76 533.738C310.96 533.738 313.937 536.266 313.937 541.976V555.557H308.024V542.832C308.024 539.937 306.882 538.55 304.272 538.55C301.743 538.55 299.826 540.1 299.826 543.24V555.557H293.913Z" fill="#1D1D1B"/>
<path d="M326.997 556.005C321.818 556.005 317.74 552.294 317.74 545.198V544.871C317.74 537.857 321.777 533.738 327.12 533.738C330.546 533.738 332.666 535.247 333.849 537.408V524.562H339.722V555.557H333.849V552.008C332.748 554.17 330.138 556.005 326.997 556.005ZM328.751 551.397C331.851 551.397 334.012 549.317 334.012 544.994V544.668C334.012 540.426 332.136 538.265 328.914 538.265C325.611 538.265 323.776 540.508 323.776 544.749V545.075C323.776 549.317 325.815 551.397 328.751 551.397Z" fill="#1D1D1B"/>
</svg>
