<svg width="165" height="69" viewBox="0 0 165 69" fill="none" xmlns="http://www.w3.org/2000/svg">
<g id="Vector">
<path d="M16.9215 48.2862V49.5913C16.4416 49.5913 16.0043 49.6407 15.6099 49.7396C15.2219 49.8319 14.9195 49.9934 14.7025 50.2241C14.4921 50.4548 14.4034 50.7712 14.4363 51.1732L14.8505 55.227C14.9096 55.7807 14.8768 56.2388 14.7518 56.6014C14.6269 56.9639 14.4165 57.2473 14.1207 57.4517C13.8314 57.656 13.4599 57.801 13.0062 57.8867C13.4665 57.9658 13.8445 58.1042 14.1404 58.302C14.4363 58.4931 14.6434 58.77 14.7617 59.1325C14.8801 59.4884 14.9096 59.9597 14.8505 60.5464L14.4363 64.6002C14.4034 65.0088 14.4921 65.3285 14.7025 65.5592C14.9129 65.7899 15.2154 65.9514 15.6099 66.0437C16.0043 66.136 16.4416 66.1821 16.9215 66.1821V67.4872C16.3692 67.4872 15.84 67.4378 15.3337 67.3389C14.8275 67.2467 14.3804 67.0852 13.9925 66.8545C13.6045 66.6238 13.312 66.3074 13.1147 65.9053C12.9175 65.5098 12.8517 65.0088 12.9175 64.4024L13.312 60.6453C13.3646 60.1904 13.3218 59.8081 13.1838 59.4983C13.0523 59.1885 12.763 58.9545 12.3159 58.7963C11.8754 58.6315 11.2146 58.5492 10.3336 58.5492V57.2243C11.2146 57.2243 11.8754 57.1452 12.3159 56.987C12.763 56.8288 13.0523 56.5948 13.1838 56.285C13.3218 55.9752 13.3646 55.5961 13.312 55.1479L12.9175 51.371C12.8517 50.7646 12.9175 50.2636 13.1147 49.8681C13.312 49.466 13.6013 49.1496 13.9826 48.9189C14.3705 48.6882 14.8176 48.5267 15.3238 48.4345C15.8367 48.3356 16.3692 48.2862 16.9215 48.2862Z" fill="#6C6C6C"/>
<path d="M30.0897 54.3965L26.3125 64.8078H24.3893L20.6417 54.3965H22.3972L25.4052 63.295L28.3737 54.3965H30.0897Z" fill="#6C6C6C"/>
<path d="M38.1197 54.3965V63.4928H41.0487V64.8078H33.2576V63.4928H36.4628V55.7115H33.3562V54.3965H38.1197ZM36.7981 49.5221C37.1663 49.5221 37.4589 49.6341 37.6759 49.8582C37.8994 50.0823 38.0112 50.3559 38.0112 50.6789C38.0112 51.015 37.8994 51.2985 37.6759 51.5292C37.4589 51.7533 37.1663 51.8654 36.7981 51.8654C36.4497 51.8654 36.1637 51.7533 35.9401 51.5292C35.7166 51.2985 35.6048 51.015 35.6048 50.6789C35.6048 50.3559 35.7166 50.0823 35.9401 49.8582C36.1637 49.6341 36.4497 49.5221 36.7981 49.5221Z" fill="#6C6C6C"/>
<path d="M45.9524 55.7511C46.3337 55.2501 46.7709 54.8645 47.264 54.5942C47.7637 54.3174 48.3127 54.179 48.911 54.179C49.8381 54.179 50.5876 54.4031 51.1596 54.8513C51.7316 55.2995 52.1491 55.9323 52.4121 56.7497C52.6751 57.5604 52.8066 58.5096 52.8066 59.5972C52.8066 60.6453 52.6488 61.5812 52.3332 62.4052C52.0176 63.2225 51.5541 63.8652 50.9426 64.3332C50.3378 64.8012 49.5882 65.0352 48.6941 65.0352C47.4909 65.0352 46.5474 64.6002 45.8636 63.7301L45.7453 64.8078H44.2955V50.2043L45.9524 49.9967V55.7511ZM48.2996 63.6905C49.1674 63.6905 49.8348 63.3544 50.3016 62.682C50.7684 62.0097 51.0018 60.9781 51.0018 59.5873C51.0018 58.6777 50.9098 57.923 50.7257 57.3231C50.5416 56.7167 50.2654 56.2652 49.8973 55.9686C49.5356 55.6654 49.0886 55.5138 48.556 55.5138C47.9774 55.5138 47.4679 55.6884 47.0274 56.0378C46.5934 56.3805 46.2351 56.7628 45.9524 57.1847V62.3459C46.2219 62.7545 46.5605 63.0808 46.9682 63.3247C47.3824 63.5686 47.8262 63.6905 48.2996 63.6905Z" fill="#6C6C6C"/>
<path d="M57.0298 60.1904C57.0626 60.9946 57.2171 61.6538 57.4933 62.1679C57.7694 62.6754 58.1343 63.0512 58.588 63.295C59.0416 63.5323 59.5348 63.651 60.0673 63.651C60.5999 63.651 61.0798 63.5719 61.5072 63.4137C61.9411 63.2555 62.3849 63.0215 62.8386 62.7117L63.6177 63.8092C63.1312 64.1915 62.5756 64.4914 61.951 64.7089C61.333 64.9264 60.6985 65.0352 60.0476 65.0352C59.0416 65.0352 58.1836 64.8078 57.4736 64.353C56.7635 63.8982 56.2211 63.2654 55.8463 62.4546C55.4781 61.6373 55.294 60.6914 55.294 59.617C55.294 58.5623 55.4814 57.6263 55.8562 56.809C56.2309 55.9916 56.7569 55.349 57.4341 54.881C58.1113 54.413 58.9102 54.179 59.8306 54.179C60.7051 54.179 61.4579 54.3866 62.0891 54.8019C62.7202 55.2105 63.2035 55.7972 63.5388 56.5618C63.8807 57.3198 64.0516 58.2262 64.0516 59.2808C64.0516 59.4588 64.0483 59.6269 64.0418 59.7851C64.0352 59.9367 64.0253 60.0718 64.0122 60.1904H57.0298ZM59.8503 55.5434C59.0811 55.5434 58.4368 55.817 57.9174 56.3641C57.4045 56.9112 57.1119 57.7582 57.0396 58.9051H62.454C62.4342 57.7911 62.191 56.954 61.7242 56.3937C61.2573 55.8269 60.6327 55.5434 59.8503 55.5434Z" fill="#6C6C6C"/>
<path d="M66.1643 68.3969V66.9434H76.0265V68.3969H66.1643Z" fill="#6C6C6C"/>
<path d="M83.2872 63.6015C83.8066 63.6015 84.2898 63.5159 84.7369 63.3445C85.1906 63.1731 85.6081 62.9556 85.9894 62.6919L86.7981 63.7795C86.3445 64.1684 85.7988 64.4749 85.161 64.699C84.5232 64.9231 83.8986 65.0352 83.2872 65.0352C82.2549 65.0352 81.3739 64.8144 80.6441 64.3728C79.9209 63.9245 79.3686 63.2983 78.9873 62.4942C78.6059 61.6834 78.4153 60.7342 78.4153 59.6466C78.4153 58.6052 78.6059 57.6725 78.9873 56.8485C79.3752 56.018 79.9308 55.3654 80.654 54.8909C81.3838 54.4163 82.2681 54.179 83.3069 54.179C83.971 54.179 84.5923 54.2811 85.1709 54.4855C85.756 54.6832 86.2919 54.9831 86.7784 55.3852L85.9697 56.4926C85.5292 56.1828 85.0854 55.9521 84.6383 55.8005C84.1978 55.6423 83.7474 55.5632 83.2872 55.5632C82.393 55.5632 81.6566 55.8994 81.0781 56.5717C80.4995 57.244 80.2102 58.269 80.2102 59.6466C80.2102 60.5695 80.3417 61.3242 80.6047 61.9108C80.8742 62.4909 81.2391 62.9193 81.6994 63.1962C82.1662 63.4664 82.6955 63.6015 83.2872 63.6015Z" fill="#6C6C6C"/>
<path d="M93.9799 54.179C94.9596 54.179 95.7781 54.4031 96.4356 54.8513C97.0997 55.2929 97.5961 55.9191 97.9248 56.7299C98.2601 57.5406 98.4278 58.4964 98.4278 59.5972C98.4278 60.6584 98.2568 61.5977 97.9149 62.4151C97.5731 63.2324 97.0701 63.8751 96.406 64.3431C95.7486 64.8045 94.9333 65.0352 93.9602 65.0352C92.9872 65.0352 92.1686 64.8111 91.5045 64.3629C90.8405 63.9146 90.3375 63.2852 89.9956 62.4744C89.6603 61.6571 89.4927 60.7046 89.4927 59.617C89.4927 58.5426 89.6636 57.5967 90.0055 56.7793C90.3474 55.962 90.8503 55.3259 91.5144 54.8711C92.185 54.4097 93.0069 54.179 93.9799 54.179ZM93.9799 55.5335C93.0858 55.5335 92.4086 55.8664 91.9483 56.5321C91.4947 57.1913 91.2678 58.2196 91.2678 59.617C91.2678 60.988 91.4914 62.0064 91.9385 62.6721C92.3921 63.3379 93.0661 63.6708 93.9602 63.6708C94.8544 63.6708 95.525 63.3379 95.9721 62.6721C96.4258 62.0064 96.6526 60.9814 96.6526 59.5972C96.6526 58.213 96.4291 57.1913 95.982 56.5321C95.5349 55.8664 94.8675 55.5335 93.9799 55.5335Z" fill="#6C6C6C"/>
<path d="M107.671 49.9967L109.328 50.2043V64.8078H107.878L107.72 63.4335C107.332 63.9872 106.885 64.3925 106.379 64.6496C105.879 64.9067 105.343 65.0352 104.771 65.0352C103.871 65.0352 103.128 64.8078 102.542 64.353C101.957 63.8982 101.523 63.2654 101.241 62.4546C100.958 61.6373 100.817 60.6914 100.817 59.617C100.817 58.5755 100.978 57.6461 101.3 56.8288C101.622 56.0048 102.086 55.3589 102.69 54.8909C103.302 54.4163 104.035 54.179 104.89 54.179C105.488 54.179 106.014 54.2844 106.468 54.4954C106.921 54.6997 107.322 55.0029 107.671 55.405V49.9967ZM105.324 55.5138C104.456 55.5138 103.788 55.8532 103.322 56.5321C102.855 57.2111 102.621 58.2393 102.621 59.617C102.621 60.5134 102.717 61.2649 102.907 61.8713C103.098 62.4777 103.377 62.9325 103.746 63.2357C104.12 63.5389 104.577 63.6905 105.117 63.6905C105.708 63.6905 106.211 63.5224 106.625 63.1863C107.046 62.8501 107.395 62.4711 107.671 62.0492V56.8485C107.388 56.4267 107.046 56.1004 106.645 55.8697C106.244 55.6324 105.804 55.5138 105.324 55.5138Z" fill="#6C6C6C"/>
<path d="M118.147 54.3965V63.4928H121.076V64.8078H113.285V63.4928H116.49V55.7115H113.383V54.3965H118.147ZM116.825 49.5221C117.193 49.5221 117.486 49.6341 117.703 49.8582C117.926 50.0823 118.038 50.3559 118.038 50.6789C118.038 51.015 117.926 51.2985 117.703 51.5292C117.486 51.7533 117.193 51.8654 116.825 51.8654C116.477 51.8654 116.191 51.7533 115.967 51.5292C115.744 51.2985 115.632 51.015 115.632 50.6789C115.632 50.3559 115.744 50.0823 115.967 49.8582C116.191 49.6341 116.477 49.5221 116.825 49.5221Z" fill="#6C6C6C"/>
<path d="M124.322 64.8078V54.3965H125.733L125.861 55.84C126.282 55.3061 126.808 54.8974 127.439 54.614C128.077 54.324 128.695 54.179 129.293 54.179C130.312 54.179 131.052 54.4492 131.512 54.9897C131.979 55.5302 132.212 56.2817 132.212 57.244V64.8078H130.555V58.4701C130.555 57.7582 130.516 57.1847 130.437 56.7497C130.358 56.308 130.194 55.9883 129.944 55.7906C129.694 55.5863 129.306 55.4841 128.78 55.4841C128.373 55.4841 127.988 55.5731 127.626 55.7511C127.271 55.929 126.952 56.1531 126.67 56.4234C126.394 56.687 126.163 56.954 125.979 57.2243V64.8078H124.322Z" fill="#6C6C6C"/>
<path d="M144.197 53.2891L144.71 54.8513C144.269 54.9897 143.799 55.0754 143.299 55.1084C142.8 55.1413 142.257 55.1578 141.672 55.1578C142.271 55.4347 142.721 55.7939 143.023 56.2355C143.326 56.6706 143.477 57.1847 143.477 57.7779C143.477 58.4635 143.322 59.0732 143.013 59.6071C142.704 60.141 142.257 60.5596 141.672 60.8628C141.094 61.166 140.393 61.3176 139.572 61.3176C139.223 61.3176 138.931 61.3011 138.694 61.2682C138.464 61.2352 138.24 61.1858 138.023 61.1198C137.865 61.2253 137.734 61.3703 137.629 61.5549C137.53 61.7394 137.481 61.9306 137.481 62.1283C137.481 62.3788 137.579 62.5865 137.777 62.7512C137.974 62.916 138.339 62.9984 138.871 62.9984H140.745C141.442 62.9984 142.067 63.1237 142.619 63.3741C143.178 63.6246 143.615 63.9608 143.931 64.3826C144.253 64.8045 144.414 65.2857 144.414 65.8262C144.414 66.8479 143.98 67.6323 143.112 68.1794C142.251 68.7265 141.031 69 139.453 69C138.349 69 137.477 68.8847 136.84 68.6539C136.202 68.4298 135.745 68.0838 135.469 67.6158C135.199 67.1544 135.065 66.571 135.065 65.8657H136.564C136.564 66.2678 136.642 66.6007 136.8 66.8643C136.958 67.128 137.244 67.3225 137.658 67.4477C138.073 67.5795 138.668 67.6454 139.443 67.6454C140.206 67.6454 140.827 67.5795 141.307 67.4477C141.794 67.3225 142.152 67.1313 142.382 66.8742C142.619 66.6238 142.737 66.3107 142.737 65.9349C142.737 65.4406 142.514 65.0682 142.067 64.8177C141.62 64.5672 141.061 64.442 140.39 64.442H138.536C137.642 64.442 136.981 64.2442 136.554 63.8487C136.133 63.4532 135.923 62.9984 135.923 62.4843C135.923 62.1481 136.018 61.8218 136.209 61.5054C136.406 61.1891 136.692 60.9089 137.067 60.665C136.468 60.3486 136.028 59.9564 135.745 59.4884C135.462 59.0204 135.321 58.4536 135.321 57.7878C135.321 57.0825 135.495 56.4596 135.844 55.9191C136.192 55.372 136.679 54.9436 137.303 54.6338C137.928 54.324 138.648 54.1691 139.463 54.1691C140.338 54.1625 141.048 54.1262 141.593 54.0603C142.139 53.9878 142.606 53.8857 142.994 53.7538C143.388 53.622 143.789 53.4671 144.197 53.2891ZM139.463 55.3852C138.628 55.3852 138.01 55.6126 137.609 56.0674C137.214 56.5157 137.017 57.0891 137.017 57.7878C137.017 58.4931 137.221 59.0732 137.629 59.528C138.036 59.9828 138.661 60.2102 139.503 60.2102C140.239 60.2102 140.798 59.996 141.179 59.5675C141.567 59.1391 141.761 58.5426 141.761 57.7779C141.761 56.9936 141.567 56.4003 141.179 55.9982C140.798 55.5896 140.226 55.3852 139.463 55.3852Z" fill="#6C6C6C"/>
<path d="M148.134 48.2862C148.686 48.2862 149.216 48.3356 149.722 48.4345C150.228 48.5267 150.675 48.6882 151.063 48.9189C151.451 49.1496 151.744 49.466 151.941 49.8681C152.145 50.2636 152.21 50.7646 152.138 51.371L151.744 55.1479C151.691 55.5961 151.747 55.9752 151.911 56.285C152.082 56.5948 152.391 56.8288 152.838 56.987C153.285 57.1452 153.913 57.2243 154.722 57.2243V58.5492C153.92 58.5492 153.292 58.6315 152.838 58.7963C152.391 58.9545 152.082 59.1885 151.911 59.4983C151.747 59.8081 151.691 60.1904 151.744 60.6453L152.138 64.4024C152.204 65.0088 152.138 65.5098 151.941 65.9053C151.744 66.3074 151.451 66.6238 151.063 66.8545C150.682 67.0852 150.235 67.2467 149.722 67.3389C149.216 67.4378 148.686 67.4872 148.134 67.4872V66.1821C148.614 66.1821 149.048 66.136 149.436 66.0437C149.83 65.9514 150.136 65.7899 150.353 65.5592C150.57 65.3285 150.659 65.0088 150.619 64.6002L150.205 60.5464C150.146 59.9597 150.179 59.4884 150.304 59.1325C150.429 58.77 150.652 58.4931 150.974 58.302C151.303 58.1108 151.734 57.979 152.266 57.9065C151.754 57.8208 151.333 57.6725 151.004 57.4616C150.682 57.2506 150.455 56.9639 150.323 56.6014C150.192 56.2388 150.153 55.7807 150.205 55.227L150.619 51.1732C150.659 50.7712 150.57 50.4548 150.353 50.2241C150.136 49.9934 149.834 49.8319 149.446 49.7396C149.058 49.6407 148.621 49.5913 148.134 49.5913V48.2862Z" fill="#6C6C6C"/>
<path d="M14.7696 36.5908C10.9352 36.5908 8.14221 34.6925 6.86407 32.1297V36.0688H0V0H6.86407V15.1394C8.23689 12.7665 11.1245 10.6783 14.7696 10.6783C20.8289 10.6783 25.5628 15.1869 25.5628 23.3972V23.7769C25.5628 31.9873 20.9236 36.5908 14.7696 36.5908ZM12.734 31.228C16.5211 31.228 18.604 28.6652 18.604 23.8244V23.4447C18.604 18.4141 16.1424 15.9462 12.6867 15.9462C9.08898 15.9462 6.62738 18.4615 6.62738 23.4447V23.8244C6.62738 28.8076 8.99431 31.228 12.734 31.228Z" fill="#1D1D1B"/>
<path d="M41.5498 36.5908C34.0704 36.5908 28.6264 31.8924 28.6264 23.9668V23.5871C28.6264 15.7564 34.165 10.6783 41.3605 10.6783C47.7512 10.6783 53.4318 14.4275 53.4318 23.3023V25.2007H35.5852C35.7746 29.3296 37.9995 31.7026 41.7392 31.7026C44.9109 31.7026 46.473 30.3263 46.8991 28.2381H53.3845C52.5797 33.6009 48.3192 36.5908 41.5498 36.5908ZM35.6799 20.9768H46.7571C46.5204 17.2276 44.6268 15.4242 41.3605 15.4242C38.2835 15.4242 36.2006 17.4649 35.6799 20.9768Z" fill="#1D1D1B"/>
<path d="M60.1246 44.5165L64.4798 33.5535L54.6334 11.2478H62.0182L68.0302 26.1499L73.5688 11.2478H80.1488L66.752 44.5165H60.1246Z" fill="#1D1D1B"/>
<path d="M94.2079 31.3703C98.0424 31.3703 100.267 28.5228 100.267 23.8244V23.4922C100.267 18.7463 98.0424 15.8987 94.2079 15.8987C90.4209 15.8987 88.1486 18.6514 88.1486 23.3972V23.7769C88.1486 28.5228 90.3262 31.3703 94.2079 31.3703ZM94.1606 36.5908C86.7758 36.5908 81.1425 31.6551 81.1425 23.9193V23.5396C81.1425 15.7564 86.7758 10.6783 94.2079 10.6783C101.64 10.6783 107.226 15.6614 107.226 23.3972V23.7769C107.226 31.6076 101.593 36.5908 94.1606 36.5908Z" fill="#1D1D1B"/>
<path d="M111.828 36.0688V11.2478H118.692V15.1869C119.923 12.719 122.621 10.6783 126.739 10.6783C131.615 10.6783 135.071 13.6207 135.071 20.265V36.0688H128.207V21.2616C128.207 17.892 126.881 16.2784 123.852 16.2784C120.917 16.2784 118.692 18.0819 118.692 21.7362V36.0688H111.828Z" fill="#1D1D1B"/>
<path d="M150.23 36.5908C144.218 36.5908 139.485 32.2721 139.485 24.0142V23.6345C139.485 15.4716 144.171 10.6783 150.372 10.6783C154.349 10.6783 156.81 12.4342 158.183 14.9496V0H165V36.0688H158.183V31.9399C156.905 34.4552 153.875 36.5908 150.23 36.5908ZM152.266 31.228C155.864 31.228 158.373 28.8076 158.373 23.7769V23.3972C158.373 18.4615 156.195 15.9462 152.455 15.9462C148.621 15.9462 146.491 18.5564 146.491 23.4922V23.8718C146.491 28.8076 148.858 31.228 152.266 31.228Z" fill="#1D1D1B"/>
</g>
</svg>
