<svg width="388" height="16" viewBox="0 0 388 16" fill="none" xmlns="http://www.w3.org/2000/svg">
<g id="Group 11">
<g id="Vector">
<path d="M111.58 3.19562L109.827 1.56761L97.554 12.9637L99.3073 14.5917L111.58 3.19562Z" fill="#FF6100"/>
<path d="M111.58 12.9632L99.3068 1.56717L97.5536 3.19518L109.826 14.5912L111.58 12.9632Z" fill="#FF6100"/>
</g>
<g id="Group 9">
<path id="Vector_2" d="M282.143 8.97259C282.566 9.59647 282.793 10.3331 282.793 11.0872C282.792 11.7181 282.631 12.3383 282.325 12.8896C281.993 13.486 281.533 14.0015 280.978 14.3991C280.437 14.7918 279.835 15.0909 279.195 15.284C277.838 15.6967 276.389 15.6967 275.032 15.284C274.392 15.0909 273.789 14.7918 273.249 14.3991C272.558 13.9172 272.029 13.2364 271.733 12.4471L274.03 11.1458C274.047 11.3832 274.136 11.6098 274.283 11.7965C274.425 11.9836 274.597 12.1463 274.791 12.2779C275.117 12.5032 275.477 12.6745 275.858 12.7855C276.675 13.0309 277.546 13.0309 278.363 12.7855C278.743 12.6744 279.103 12.5031 279.43 12.2779C279.643 12.1496 279.824 11.9724 279.956 11.7609C280.088 11.5495 280.169 11.3097 280.191 11.0612C280.185 10.7661 280.08 10.4816 279.891 10.2544C279.671 9.98364 279.396 9.76201 279.085 9.60374C278.395 9.32983 277.666 9.16729 276.925 9.12223C275.946 9.05784 274.985 8.83821 274.075 8.47157C273.286 8.13082 272.609 7.57364 272.123 6.86444C271.673 6.20725 271.433 5.42918 271.434 4.63267C271.433 3.99966 271.595 3.37702 271.902 2.82383C272.224 2.23406 272.668 1.71949 273.203 1.31429C273.744 0.921482 274.346 0.622355 274.986 0.429402C276.343 0.0166721 277.793 0.0166721 279.15 0.429402C279.789 0.62247 280.392 0.921588 280.932 1.31429C281.627 1.79885 282.164 2.47792 282.474 3.26628L280.152 4.60015C280.125 4.35564 280.042 4.12055 279.91 3.91299C279.778 3.70542 279.601 3.53092 279.391 3.40293C279.064 3.17821 278.704 3.00689 278.324 2.89542C277.507 2.6511 276.636 2.6511 275.819 2.89542C275.438 3.00668 275.078 3.17801 274.752 3.40293C274.538 3.53131 274.358 3.70847 274.225 3.91994C274.093 4.13141 274.013 4.37118 273.991 4.61967C273.999 4.93334 274.111 5.23538 274.309 5.47852C274.543 5.77429 274.854 5.99952 275.207 6.12919C275.487 6.2474 275.78 6.33257 276.079 6.38295C276.417 6.44368 276.808 6.50441 277.25 6.56514C278.308 6.65815 279.344 6.92641 280.314 7.35895C281.045 7.74174 281.672 8.29533 282.143 8.97259Z" fill="#1D1D1B"/>
<path id="Vector_3" d="M292.591 15.4337V0.305805H302.155V2.90845H295.194V6.56517H300.437V9.16781H295.194V12.8701H302.161V15.4727L292.591 15.4337Z" fill="#1D1D1B"/>
<path id="Vector_4" d="M317.886 6.58469L313.794 15.4402H310.944L317.958 0.305805L324.626 15.4402H321.796L317.886 6.58469Z" fill="#1D1D1B"/>
<path id="Vector_5" d="M342.361 15.4337L337.28 8.76443V15.4337H334.678V0.29932H340.221C340.93 0.295321 341.635 0.416474 342.303 0.657195C342.934 0.883264 343.515 1.23023 344.014 1.67872C344.489 2.08885 344.872 2.59429 345.139 3.16223C345.465 3.86047 345.59 4.63565 345.501 5.40098C345.411 6.16632 345.11 6.8916 344.632 7.49564C344.126 8.14256 343.45 8.63595 342.68 8.92059C342.369 9.03715 342.049 9.12854 341.724 9.19387C341.463 9.25791 341.198 9.29712 340.93 9.31099L345.53 15.4272L342.361 15.4337ZM337.28 2.90197V6.97511H339.518C340.256 7.00385 340.992 6.8775 341.678 6.60423C342.02 6.46553 342.32 6.2415 342.55 5.95357C342.787 5.671 342.919 5.31422 342.921 4.94505C342.917 4.68855 342.857 4.43602 342.744 4.20545C342.632 3.97489 342.47 3.77197 342.27 3.61119C341.693 3.12635 340.954 2.8797 340.201 2.92149L337.28 2.90197Z" fill="#1D1D1B"/>
<path id="Vector_6" d="M361.872 15.5768C360.525 15.5844 359.202 15.2221 358.047 14.5293C356.889 13.8485 355.93 12.8773 355.262 11.7119C354.243 9.94371 353.964 7.84444 354.486 5.87136C355.007 3.89827 356.287 2.21123 358.047 1.17769C359.205 0.492514 360.527 0.134922 361.872 0.143138C362.937 0.140223 363.99 0.361939 364.963 0.7938C365.943 1.22461 366.818 1.86411 367.526 2.66771L365.62 4.39196C365.142 3.86357 364.559 3.44035 363.909 3.14919C363.184 2.82643 362.393 2.68108 361.601 2.72521C360.809 2.76934 360.039 3.00169 359.355 3.40296C358.199 4.10289 357.361 5.22456 357.018 6.53099C356.674 7.83742 356.852 9.22626 357.513 10.4041C357.954 11.1834 358.591 11.8339 359.361 12.291C360.066 12.7148 360.866 12.9548 361.688 12.9889C362.51 13.023 363.327 12.8501 364.065 12.4862C364.745 12.1494 365.344 11.6701 365.821 11.0808L367.845 12.6879C367.133 13.5844 366.228 14.3086 365.197 14.8066C364.166 15.3045 363.037 15.5634 361.892 15.5638L361.872 15.5768Z" fill="#1D1D1B"/>
<path id="Vector_7" d="M385.398 9.15481H379.074V15.4337H376.472V0.305805H379.074V6.55865H385.398V0.305805H388V15.4402H385.398V9.15481Z" fill="#1D1D1B"/>
<path id="Vector_8" d="M138.393 15.3621V0.20172H140.996V15.3621H138.393Z" fill="#1D1D1B"/>
<path id="Vector_9" d="M165.132 15.3621V8.07471L159.928 15.2971L154.723 8.05519V15.3621H152.121V0L159.928 10.853L167.676 0V15.3621H165.132Z" fill="#1D1D1B"/>
<path id="Vector_10" d="M178.632 15.3622V0.201803H184.266C184.931 0.198223 185.592 0.31052 186.218 0.533646C186.826 0.749862 187.39 1.07386 187.884 1.49012C188.374 1.9151 188.772 2.43532 189.055 3.01916C189.328 3.5842 189.469 4.20367 189.469 4.83125C189.469 5.45884 189.328 6.0783 189.055 6.64335C188.767 7.2276 188.369 7.7511 187.884 8.18541C187.39 8.60167 186.826 8.92567 186.218 9.14189C185.592 9.36501 184.931 9.47731 184.266 9.47373H181.208V15.3297L178.632 15.3622ZM181.234 6.90361H184.292C184.987 6.9374 185.669 6.70468 186.198 6.25295C186.414 6.09377 186.589 5.88582 186.709 5.64607C186.829 5.40632 186.89 5.14159 186.888 4.87355C186.887 4.60604 186.824 4.3424 186.705 4.10313C186.585 3.86387 186.412 3.65545 186.198 3.49415C185.663 3.05241 184.986 2.82106 184.292 2.84349H181.234V6.90361Z" fill="#1D1D1B"/>
<path id="Vector_11" d="M200.407 13.293L199.444 15.3621H196.595L203.602 0.20172L210.27 15.3361H207.44L206.523 13.267L200.407 13.293ZM203.537 6.50663L201.585 10.6904H205.358L203.537 6.50663Z" fill="#1D1D1B"/>
<path id="Vector_12" d="M220.12 15.3621V0.20172H222.723V12.7595H229.69V15.3621H220.12Z" fill="#1D1D1B"/>
<path id="Vector_13" d="M243.066 13.293L242.103 15.3621H239.247L246.261 0.20172L252.929 15.3361H250.099L249.182 13.267L243.066 13.293ZM246.196 6.50663L244.244 10.6904H248.017L246.196 6.50663Z" fill="#1D1D1B"/>
</g>
<g id="Group">
<path id="Vector_14" d="M8.84511 9.12358H2.55887V15.3633H0V0.32496H2.55887V6.54147H8.843V0.32496H11.4019L11.4251 15.3633H8.843V9.12358H8.84511Z" fill="#1D1D1B"/>
<path id="Vector_15" d="M31.7865 15.4291V8.18357L26.6434 15.3594L21.4559 8.16033V15.4291H18.897V0.162545L26.6455 10.9495L34.3475 0.162545V15.4291H31.7886H31.7865Z" fill="#1D1D1B"/>
<path id="Vector_16" d="M41.8195 15.3633L48.3107 2.90707H41.8427V0.32496H52.5388L46.0476 12.8045H52.5156V15.3633H41.8195Z" fill="#1D1D1B"/>
<path id="Vector_17" d="M60.0107 15.3633V0.32496H69.5193V2.90707H62.5949V6.54147H67.8056V9.12358H62.5949V12.8024H69.5193V15.3612H60.0107V15.3633Z" fill="#1D1D1B"/>
</g>
</g>
</svg>
